<svg xmlns="http://www.w3.org/2000/svg" version="1.1" xmlns:xlink="http://www.w3.org/1999/xlink" xmlns:svgjs="http://svgjs.com/svgjs" width="100%" height="100%"><svg width="100%" height="100%" viewBox="0 0 16 16" version="1.1" xmlns="http://www.w3.org/2000/svg" xmlns:xlink="http://www.w3.org/1999/xlink" xml:space="preserve" xmlns:serif="http://www.serif.com/" style="fill-rule:evenodd;clip-rule:evenodd;stroke-linejoin:round;stroke-miterlimit:2;"><path d="M16,3.2c0,-1.766 -1.434,-3.2 -3.2,-3.2l-9.6,0c-1.766,0 -3.2,1.434 -3.2,3.2l-0,9.6c-0,1.766 1.434,3.2 3.2,3.2l9.6,0c1.766,0 3.2,-1.434 3.2,-3.2l0,-9.6Z" style="fill:#222;"></path><g><path d="M8,1.813c-1.285,-0.07 -2.234,1.081 -1.908,2.547l-3.724,1.663c-1.065,0.638 -0.53,2.316 0.478,2.331l2.068,-0.045l-2.611,4.927c-0.212,0.477 -0.088,0.916 0.256,0.954l3.603,-0c0.443,-0 1.425,-2.259 1.838,-2.278l0,-10.099Z" style="fill:#eee;"></path></g><g><path d="M8,1.813c1.285,-0.07 2.234,1.081 1.908,2.547l3.724,1.663c1.065,0.638 0.53,2.316 -0.478,2.331l-2.068,-0.045l2.611,4.927c0.212,0.477 0.088,0.916 -0.256,0.954l-3.603,-0c-0.443,-0 -1.425,-2.259 -1.838,-2.278l0,-10.099Z" style="fill:#eee;"></path></g></svg><style>@media (prefers-color-scheme: light) { :root { filter: none; } }
</style></svg>