<?xml version="1.0" standalone="no"?>
<!DOCTYPE svg PUBLIC "-//W3C//DTD SVG 20010904//EN"
 "http://www.w3.org/TR/2001/REC-SVG-20010904/DTD/svg10.dtd">
<svg version="1.0" xmlns="http://www.w3.org/2000/svg"
 width="700.000000pt" height="700.000000pt" viewBox="0 0 700.000000 700.000000"
 preserveAspectRatio="xMidYMid meet">
<metadata>
Created by potrace 1.14, written by Peter Selinger 2001-2017
</metadata>
<g transform="translate(0.000000,700.000000) scale(0.100000,-0.100000)"
fill="#000000" stroke="none">
<path d="M1222 6988 c-171 -21 -367 -88 -517 -175 -121 -69 -212 -142 -316
-251 -187 -195 -301 -411 -361 -685 l-23 -102 0 -2275 0 -2275 23 -102 c42
-193 109 -349 219 -516 62 -94 267 -299 363 -362 163 -108 343 -183 535 -222
86 -17 203 -18 2360 -18 l2270 0 102 23 c291 64 500 178 708 387 209 208 323
417 387 708 l23 102 0 2275 0 2275 -23 102 c-60 275 -174 490 -362 686 -203
213 -431 341 -728 409 l-97 22 -2245 2 c-1326 1 -2275 -2 -2318 -8z m2502
-993 c282 -71 484 -271 557 -550 25 -95 30 -306 10 -398 -7 -32 -11 -60 -9
-61 1 -1 345 -155 763 -341 418 -186 775 -349 793 -362 101 -75 171 -191 192
-314 38 -227 -79 -480 -268 -575 l-57 -29 -469 3 c-447 3 -468 2 -462 -15 4
-10 242 -461 529 -1002 287 -541 530 -1006 540 -1034 40 -111 32 -226 -20
-288 -52 -61 -23 -59 -838 -59 -637 0 -750 2 -774 15 -66 33 -157 158 -407
553 -132 209 -222 327 -269 349 -81 39 -135 -23 -423 -479 -180 -285 -261
-391 -323 -424 -24 -12 -148 -14 -774 -14 -815 0 -786 -2 -838 59 -52 62 -60
178 -21 287 11 28 254 494 541 1035 287 541 525 992 529 1002 6 17 -15 18
-462 15 l-469 -3 -60 32 c-132 69 -220 191 -259 360 -41 181 7 354 132 478 64
64 -16 25 882 425 399 178 727 325 728 326 2 1 -2 29 -9 61 -20 93 -15 303 10
398 83 316 320 520 667 575 87 13 229 3 338 -25z"/>
</g>
</svg>
