<svg xmlns="http://www.w3.org/2000/svg" xml:space="preserve" style="fill-rule:evenodd;clip-rule:evenodd;stroke-linejoin:round;stroke-miterlimit:2" viewBox="0 0 800 800"><path d="M584.973 556.261v121.87c0 13.371-11.002 24.373-24.373 24.373H121.869c-13.371 0-24.373-11.002-24.373-24.373V239.4c0-13.371 11.002-24.373 24.373-24.373h121.87c26.742 0 48.748-22.006 48.748-48.748 0-26.743-22.006-48.748-48.748-48.748H73.122C33.008 117.531 0 150.539 0 190.653v536.225C0 766.992 33.008 800 73.122 800h536.225c40.114 0 73.122-33.008 73.122-73.122V556.261c0-26.742-22.005-48.748-48.748-48.748-26.742 0-48.748 22.006-48.748 48.748Z" style="fill:#eee;fill-rule:nonzero"/><path d="M779.965 68.783c0-26.905-21.843-48.748-48.748-48.748H438.73c-26.905 0-48.748 21.843-48.748 48.748 0 26.905 21.843 48.748 48.748 48.748h292.487c26.905 0 48.748-21.843 48.748-48.748Z" style="fill:#eee"/><path d="M731.217 410.018c26.905 0 48.748-21.843 48.748-48.748V68.783c0-26.905-21.843-48.748-48.748-48.748-26.905 0-48.748 21.843-48.748 48.748V361.27c0 26.905 21.843 48.748 48.748 48.748Z" style="fill:#eee"/><path d="M765.796 34.202c-18.887-18.886-49.554-18.886-68.44 0L292.068 439.49c-18.886 18.886-18.886 49.553 0 68.44 18.887 18.886 49.554 18.886 68.44 0l405.288-405.288c18.886-18.886 18.886-49.553 0-68.44Z" style="fill:#eee"/></svg>