<?xml version="1.0" encoding="UTF-8" standalone="no"?><!DOCTYPE svg PUBLIC "-//W3C//DTD SVG 1.1//EN" "http://www.w3.org/Graphics/SVG/1.1/DTD/svg11.dtd"><svg width="100%" height="100%" viewBox="0 0 43 29" version="1.1" xmlns="http://www.w3.org/2000/svg" xmlns:xlink="http://www.w3.org/1999/xlink" xml:space="preserve" xmlns:serif="http://www.serif.com/" style="fill-rule:evenodd;clip-rule:evenodd;stroke-linejoin:round;stroke-miterlimit:2;"><rect id="Artboard1" x="0" y="0" width="42.324" height="29" style="fill:none;"/><clipPath id="_clip1"><rect id="Artboard11" serif:id="Artboard1" x="0" y="0" width="42.324" height="29"/></clipPath><g clip-path="url(#_clip1)"><path d="M22.324,4.833l-0,3.334l20,-0l-0,-3.334l-20,0Zm-0,19.334l10,-0l-0,-3.334l-10,0l-0,3.334Zm-0,-8l15,-0l-0,-3.334l-15,0l-0,3.334Z" style="fill:#eee;fill-rule:nonzero;"/><path d="M15.657,8.964l-3.333,-0l-0,13.869l-4.167,0l5.833,5.834l5.834,-5.834l-4.167,0l-0,-13.869Z" style="fill:#555;fill-rule:nonzero;"/><path d="M7.5,6.167l4.167,-0l-5.834,-5.834l-5.833,5.834l4.167,-0l-0,13.869l3.333,0l0,-13.869Z" style="fill:#eee;fill-rule:nonzero;"/></g></svg>